PathFileType	4	(X/Y/Z)	s07c0101.trc
DataRate	CameraRate	NumFrames	NumMarkers	Units	OrigDataRate	OrigDataStartFrame	OrigNumFrames
200	200	4	48	mm	200	750	2000
Frame#	Time	racr			lacr			c7			jug			rlel			rdr			llel			ldr			s2			lic			ric			lasi			rasi			rpsi			lpsi			rgt			lgt			rth1			rth2			rth3			rth4			rlfc			rmfc			rsh1			rsh2			rsh3			rsh4			rlmal			rcal			rtoe			rmt5			lth1			lth2			lth4			lth3			llfc			lmfc			lsh1			lsh2			lsh3			lsh4			llmal			lcal			ltoe			lmt5			SBIKE			LBIKE			RBIKE			
		X1	Y1	Z1	X2	Y2	Z2	X3	Y3	Z3	X4	Y4	Z4	X5	Y5	Z5	X6	Y6	Z6	X7	Y7	Z7	X8	Y8	Z8	X9	Y9	Z9	X10	Y10	Z10	X11	Y11	Z11	X12	Y12	Z12	X13	Y13	Z13	X14	Y14	Z14	X15	Y15	Z15	X16	Y16	Z16	X17	Y17	Z17	X18	Y18	Z18	X19	Y19	Z19	X20	Y20	Z20	X21	Y21	Z21	X22	Y22	Z22	X23	Y23	Z23	X24	Y24	Z24	X25	Y25	Z25	X26	Y26	Z26	X27	Y27	Z27	X28	Y28	Z28	X29	Y29	Z29	X30	Y30	Z30	X31	Y31	Z31	X32	Y32	Z32	X33	Y33	Z33	X34	Y34	Z34	X35	Y35	Z35	X36	Y36	Z36	X37	Y37	Z37	X38	Y38	Z38	X39	Y39	Z39	X40	Y40	Z40	X41	Y41	Z41	X42	Y42	Z42	X43	Y43	Z43	X44	Y44	Z44	X45	Y45	Z45	X46	Y46	Z46	X47	Y47	Z47	X48	Y48	Z48	
750	3.7500	456.336890	1427.347231	-73.784452	472.347741	1415.552636	-330.372011	425.664201	1471.040340	-207.884900	377.488128	1325.860083	-207.929282	507.396060	1102.824709	53.841185	713.329440	918.412991	-62.541301	513.063634	1116.563516	-509.723410	714.152842	911.030055	-425.081097	-148.401945	1202.785065	-248.101724	14.485547	1267.874358	-379.870078	2.654771	1257.046713	-86.949007	47.385557	1194.973757	-354.090860	30.240481	1207.892627	-101.826712	-126.796008	1244.745861	-196.333933	-113.102518	1255.059482	-304.050067	-34.103664	1121.277378	-51.051737	-19.349480	1107.135652	-411.998792	84.430852	1015.530360	-48.393868	158.023060	968.636692	-59.597251	199.618051	894.187746	-63.288720	182.708427	993.236361	-73.272636	283.783586	780.485986	-96.414860	268.101745	761.993921	-198.997372	256.393964	640.708604	-66.100488	262.090876	552.987175	-84.396101	227.696308	473.677371	-76.109979	274.627330	553.995927	-123.239254	196.882473	333.734501	-74.626021	142.663084	276.658607	-98.511994	428.629639	325.476141	-128.324551	366.029024	273.878964	-53.986695	73.727389	1025.574523	-411.257037	155.493827	993.038593	-402.770220	175.488849	1021.981894	-393.594509	212.183607	925.369282	-393.673515	325.596417	798.003494	-356.554446	305.354975	781.363806	-257.924597	214.902664	697.201239	-381.537833	167.177039	626.582542	-368.993481	87.619693	585.505200	-380.156356	171.183500	624.178836	-327.261031	-18.698125	506.870961	-387.795704	-64.731805	491.353706	-367.250801	123.818939	323.004234	-356.696075	45.050202	353.755439	-418.393738	-264.148806	977.598274	-234.889103	-82.666680	78.912967	-434.878710	-82.654548	78.840448	-37.439527	
751	3.7550	457.738285	1427.133813	-75.362935	469.868027	1417.296200	-332.815424	425.221545	1472.731345	-209.947553	375.531090	1328.060462	-210.491125	507.636009	1102.598009	54.227250	713.480061	918.394398	-62.169619	512.159346	1116.402379	-508.863848	714.175371	911.164904	-424.957737	-147.982843	1202.930400	-244.751558	13.557849	1269.532170	-379.085215	5.108597	1255.495456	-84.912863	47.220493	1196.432325	-352.448477	31.873978	1206.306322	-99.586061	-125.793571	1244.028421	-192.485294	-113.431440	1255.239975	-299.888115	-32.795195	1118.928218	-49.020655	-19.290482	1108.663384	-410.203888	83.674684	1011.002332	-47.062731	156.079655	962.304768	-58.750759	196.093279	887.183135	-62.286719	181.151220	986.070196	-73.511524	277.179561	771.533767	-96.082652	261.115816	753.022230	-197.859861	250.723087	631.534275	-65.253860	257.369961	544.011664	-83.607350	223.749582	464.433176	-75.037352	269.690338	545.072656	-122.687265	194.206318	324.425235	-73.817602	139.879168	267.465178	-97.183457	425.736069	313.678776	-129.648040	362.613400	263.194642	-54.773628	74.846393	1028.451701	-409.684341	157.049321	997.469425	-401.651292	176.638781	1026.682368	-392.755328	215.079050	930.711076	-393.443628	331.225961	805.798512	-356.841750	312.906110	789.100533	-258.084793	220.265481	705.758035	-381.879706	172.164035	635.408599	-369.319834	92.218157	594.981674	-380.159118	176.421735	632.749221	-327.720212	-14.717339	517.409318	-387.538676	-64.149861	511.014523	-378.135106	126.743179	332.607994	-356.714161	47.693009	363.198464	-417.230761	-264.180538	977.637864	-234.503567	-82.666154	78.961103	-434.864155	-82.664771	78.807115	-37.395580	
752	3.7600	459.190989	1427.077411	-77.240975	467.739026	1418.973715	-335.986506	424.822750	1474.514436	-212.126881	373.844731	1330.291778	-213.156633	507.983623	1102.459310	54.309364	713.659980	918.395989	-61.939109	511.483459	1116.351113	-507.761222	714.174071	911.306778	-424.827749	-147.119080	1202.759987	-241.045297	12.353866	1271.077199	-376.494505	7.282100	1255.012879	-81.984856	46.056212	1197.203755	-349.425713	33.634055	1204.674075	-97.446543	-125.049579	1244.391713	-188.765586	-113.606073	1255.591347	-296.164248	-31.410736	1116.412781	-46.918553	-19.283980	1110.804169	-408.722422	82.853640	1006.195372	-45.804422	153.996861	955.761816	-57.846700	192.025330	879.545264	-62.122467	179.760082	979.607018	-72.092522	270.365817	762.729200	-95.537759	253.646651	744.184951	-196.799928	244.786716	622.601529	-64.430841	252.136218	535.030703	-82.862817	219.884436	454.493934	-74.967886	263.926423	536.384676	-122.044475	190.965387	315.449222	-73.108998	136.787850	258.377352	-96.289797	422.487025	302.820802	-130.032921	359.406828	252.914170	-54.819023	76.186094	1031.898892	-408.310857	158.897725	1002.546620	-400.792714	177.930913	1032.252096	-391.916962	218.500786	936.839988	-393.667089	337.346321	815.095553	-358.169772	319.634401	797.104598	-260.055556	226.639111	714.963747	-382.319497	178.283952	644.835937	-369.867881	98.110077	604.678227	-380.387285	182.734615	641.875946	-328.215206	-8.836946	528.143086	-387.913868	-62.461766	526.144495	-376.430452	130.384029	341.708712	-356.770727	51.640941	372.816532	-417.082889	-264.189614	977.633056	-234.193414	-82.675528	79.044291	-434.840987	-82.652001	78.800636	-37.405562	
753	3.7650	460.700095	1427.288697	-79.459360	465.580209	1420.690537	-339.375506	424.338138	1476.381959	-214.358599	372.350674	1332.520061	-215.747569	508.359503	1102.495719	54.203553	713.818081	918.425827	-61.909614	510.711989	1116.476248	-506.875735	714.153753	911.413131	-424.691537	-146.388438	1202.735184	-237.413766	11.060235	1272.781114	-373.727107	9.375533	1253.778556	-79.750925	46.078944	1199.197068	-347.690945	35.435600	1203.006347	-95.218099	-123.772050	1243.851415	-184.878939	-113.788232	1256.204157	-292.019925	-29.978360	1113.919757	-45.099848	-19.126887	1113.205228	-407.287277	81.871993	1001.317674	-44.576141	151.676048	949.084773	-57.027158	187.570976	871.454653	-62.022954	177.691463	971.677061	-72.034521	263.368492	754.067834	-95.027979	245.784517	735.417333	-195.786385	238.651478	613.914220	-63.648801	246.526102	526.532274	-82.234588	214.971787	445.749300	-74.256783	258.157613	527.776958	-121.492463	187.171567	306.832447	-72.513878	132.777205	249.859037	-95.187962	418.657131	292.007818	-130.553355	355.546127	242.723713	-54.938363	77.738312	1035.926539	-407.190687	161.226849	1008.416218	-400.383905	179.532667	1038.574124	-391.032136	222.350199	943.927468	-393.550375	344.100902	825.027698	-359.125019	327.202664	806.504693	-260.944919	233.844691	724.641955	-382.944759	185.416053	654.633458	-370.439727	104.987301	614.811507	-380.692209	189.674925	651.848036	-328.671192	-1.601606	538.685406	-388.450636	-61.677717	541.925790	-368.819272	134.921518	350.366552	-356.818853	56.419956	382.492606	-417.129452	-264.176231	977.636484	-233.956197	-82.684357	79.129368	-434.839334	-82.656740	78.796610	-37.389492	
